HIERARCHY
ROOT Hips
{
	OFFSET 0.00000 0.00000 0.00000
	CHANNELS 6 Xposition Yposition Zposition Zrotation Yrotation Xrotation 
	JOINT LHipJoint
	{
		OFFSET 0 0 0
		CHANNELS 3 Zrotation Yrotation Xrotation
		JOINT LeftUpLeg
		{
			OFFSET 1.62067 -1.77917 0.70989
			CHANNELS 3 Zrotation Yrotation Xrotation
			JOINT LeftLeg
			{
				OFFSET 2.34532 -6.44371 0.00000
				CHANNELS 3 Zrotation Yrotation Xrotation
				JOINT LeftFoot
				{
					OFFSET 2.74224 -7.53425 0.00000
					CHANNELS 3 Zrotation Yrotation Xrotation
					JOINT LeftToeBase
					{
						OFFSET 0.17032 -0.46794 2.08086
						CHANNELS 3 Zrotation Yrotation Xrotation
						End Site
						{
							OFFSET 0.00000 -0.00000 1.07476
						}
					}
				}
			}
		}
	}
	JOINT RHipJoint
	{
		OFFSET 0 0 0
		CHANNELS 3 Zrotation Yrotation Xrotation
		JOINT RightUpLeg
		{
			OFFSET -1.55811 -1.77917 0.70989
			CHANNELS 3 Zrotation Yrotation Xrotation
			JOINT RightLeg
			{
				OFFSET -2.33243 -6.40830 0.00000
				CHANNELS 3 Zrotation Yrotation Xrotation
				JOINT RightFoot
				{
					OFFSET -2.78798 -7.65993 0.00000
					CHANNELS 3 Zrotation Yrotation Xrotation
					JOINT RightToeBase
					{
						OFFSET -0.22707 -0.62388 2.04059
						CHANNELS 3 Zrotation Yrotation Xrotation
						End Site
						{
							OFFSET -0.00000 -0.00000 1.07030
						}
					}
				}
			}
		}
	}
	JOINT LowerBack
	{
		OFFSET 0 0 0
		CHANNELS 3 Zrotation Yrotation Xrotation
		JOINT Spine
		{
			OFFSET 0.02203 1.91565 0.07161
			CHANNELS 3 Zrotation Yrotation Xrotation
			JOINT Spine1
			{
				OFFSET 0.01740 1.90525 0.11636
				CHANNELS 3 Zrotation Yrotation Xrotation
				JOINT Neck
				{
					OFFSET 0 0 0
					CHANNELS 3 Zrotation Yrotation Xrotation
					JOINT Neck1
					{
						OFFSET -0.10841 1.83566 0.05067
						CHANNELS 3 Zrotation Yrotation Xrotation
						JOINT Head
						{
							OFFSET 0.06601 1.74760 -0.50505
							CHANNELS 3 Zrotation Yrotation Xrotation
							End Site
							{
								OFFSET 0.03102 1.85215 -0.17697
							}
						}
					}
				}
				JOINT LeftShoulder
				{
					OFFSET 0 0 0
					CHANNELS 3 Zrotation Yrotation Xrotation
					JOINT LeftArm
					{
						OFFSET 2.87059 1.35470 0.16111
						CHANNELS 3 Zrotation Yrotation Xrotation
						JOINT LeftForeArm
						{
							OFFSET 5.43592 -0.00000 0.00000
							CHANNELS 3 Zrotation Yrotation Xrotation
							JOINT LeftHand
							{
								OFFSET 3.25460 -0.00000 0.00000
								CHANNELS 3 Zrotation Yrotation Xrotation
								JOINT LeftFingerBase
								{
									OFFSET 0 0 0
									CHANNELS 3 Zrotation Yrotation Xrotation
									JOINT LeftHandIndex1
									{
										OFFSET 0.49824 -0.00000 0.00000
										CHANNELS 3 Zrotation Yrotation Xrotation
										End Site
										{
											OFFSET 0.40170 -0.00000 0.00000
										}
									}
								}
								JOINT LThumb
								{
									OFFSET 0 0 0
									CHANNELS 3 Zrotation Yrotation Xrotation
									End Site
									{
										OFFSET 0.40783 -0.00000 0.40783
									}
								}
							}
						}
					}
				}
				JOINT RightShoulder
				{
					OFFSET 0 0 0
					CHANNELS 3 Zrotation Yrotation Xrotation
					JOINT RightArm
					{
						OFFSET -2.86643 1.23488 0.45957
						CHANNELS 3 Zrotation Yrotation Xrotation
						JOINT RightForeArm
						{
							OFFSET -5.33830 -0.00000 0.00000
							CHANNELS 3 Zrotation Yrotation Xrotation
							JOINT RightHand
							{
								OFFSET -3.23148 -0.00000 0.00000
								CHANNELS 3 Zrotation Yrotation Xrotation
								JOINT RightFingerBase
								{
									OFFSET 0 0 0
									CHANNELS 3 Zrotation Yrotation Xrotation
									JOINT RightHandIndex1
									{
										OFFSET -0.46364 -0.00000 0.00000
										CHANNELS 3 Zrotation Yrotation Xrotation
										End Site
										{
											OFFSET -0.37380 -0.00000 0.00000
										}
									}
								}
								JOINT RThumb
								{
									OFFSET 0 0 0
									CHANNELS 3 Zrotation Yrotation Xrotation
									End Site
									{
										OFFSET -0.37951 -0.00000 0.37951
									}
								}
							}
						}
					}
				}
			}
		}
	}
}
MOTION
Frames: 9
Frame Time: .0083333
2.324 15.7842 -30.1611 0 0 0 0 0 0 -21 0 0 0 0 0 0 0 0 0 0 0 0 0 0 21 0 0 0 0 0 0 0 0 0 0 0 0 0 0 0 0 0 0 0 0 0 0 -16 0 0 21 0 0 11 0 0 0 -8 0 0 0 0 0 0 0 0 0 0 0 0 0 0 0 0 0 0 0 0 8 0 0 0 0 0 0 0 0 0 0 0 0 0 0 0 0 0
2.3240 15.7842 -30.1611 0.1666 -1.4672 18.0581 0.0000 0.0000 0.0000 -28.3901 -11.7082 -36.5796 9.8725 17.3375 59.0613 3.2549 -3.1899 -33.4274 0.0008 0.1842 0.5061 0.0000 0.0000 0.0000 7.3495 17.3461 -60.0006 -25.0723 -19.3716 104.9813 0.2647 -14.9425 -18.0991 -0.1850 -2.7705 7.6405 -0.5928 0.1372 -0.0098 0.2120 0.1736 -5.9601 0.5427 0.1232 -6.1734 -6.2795 -3.8654 -15.8832 5.4188 -4.7206 13.6558 2.2776 -2.1170 7.0685 -0.0000 -0.0000 0.0000 -70.4507 22.3415 52.4906 56.6155 -55.3385 -31.5407 -0.0000 0.0000 -6.1372 42.5425 -32.7306 -26.3902 -7.1250 0.0000 -0.0000 5.6248 -10.9459 -6.6194 -0.0000 -0.0000 0.0000 82.5315 -14.1675 41.7245 -48.7436 52.4761 -25.1743 0.0000 0.0000 14.7333 -43.3463 -45.2048 33.8144 7.1250 -0.0000 -0.0000 -15.4382 -83.9425 13.7457
2.2652 15.6483 -29.7768 1.3298 -1.4336 17.8710 0.0000 0.0000 0.0000 -29.7579 -11.0934 -34.6926 9.8223 17.3087 58.8929 3.5790 -3.5072 -35.0588 0.0019 -0.2804 -0.7703 0.0000 0.0000 0.0000 4.6700 18.2498 -63.6088 -24.9177 -19.4100 104.5155 0.1837 -13.9621 -17.5632 -0.0334 -1.1804 3.2455 -2.0403 -0.1265 0.9328 -0.1286 -0.2642 -5.4179 1.0252 -0.0329 -6.1334 -6.0821 -3.8744 -18.3344 5.6221 -4.6793 13.8077 2.2904 -2.0265 7.5341 0.0000 0.0000 0.0000 -70.4190 18.4763 52.9225 56.8992 -55.4254 -31.7741 -0.0000 0.0000 -6.7378 42.1203 -32.8143 -26.1053 -7.1250 0.0000 -0.0000 5.3773 -10.8618 -6.3194 0.0000 0.0000 0.0000 82.9864 -14.3828 40.2203 -50.4168 53.1622 -26.5073 0.0000 0.0000 13.7303 -43.9562 -47.0077 35.1941 7.1250 -0.0000 -0.0000 -16.5249 -85.9526 15.3354
2.2116 15.5423 -29.3750 2.1023 -1.4980 17.8509 0.0000 0.0000 0.0000 -30.7189 -10.1749 -32.8495 9.6817 17.2270 58.4193 3.9095 -3.9011 -36.6399 0.0123 -0.7175 -1.9719 0.0000 0.0000 0.0000 2.3741 19.3395 -67.2915 -24.4153 -19.5260 103.0081 0.1113 -12.9335 -16.9299 -0.0098 -0.6398 1.7582 -3.2890 -0.4428 0.4498 -0.1639 -0.7174 -5.0933 1.7087 -0.2111 -5.4900 -6.3372 -3.5721 -16.9997 5.9362 -4.2738 12.3547 2.4926 -1.8441 6.8222 0.0000 0.0000 0.0000 -70.8139 15.5217 53.3774 57.1135 -55.4904 -31.9507 -0.0000 0.0000 -6.7699 42.4264 -33.2631 -26.6246 -7.1250 0.0000 -0.0000 5.4101 -11.4826 -6.4044 0.0000 0.0000 0.0000 82.9032 -15.4275 39.3474 -51.9115 53.7379 -27.7082 0.0000 0.0000 13.2441 -43.7307 -46.7805 34.8819 7.1250 -0.0000 -0.0000 -15.3953 -85.6521 14.1996
2.1621 15.4385 -28.9647 2.3369 -1.4736 18.0184 0.0000 0.0000 0.0000 -31.0433 -9.2551 -31.1726 9.5411 17.1436 57.9433 4.2339 -4.3670 -38.1200 0.0201 -0.9160 -2.5178 0.0000 0.0000 0.0000 0.8140 20.4178 -70.2939 -23.7388 -19.6615 100.9911 -0.0099 -11.6654 -16.7365 -0.0572 -1.5427 4.2434 -3.8063 -0.7941 1.2084 -0.1546 -1.2567 -5.6466 2.0546 -0.4284 -6.4779 -6.1390 -3.1872 -16.1079 5.8656 -3.8293 12.1248 2.4934 -1.6425 6.5640 0.0000 -0.0000 0.0000 -70.9071 14.0463 54.0414 58.1942 -55.8092 -32.8429 -0.0000 0.0000 -6.2042 42.5547 -34.1320 -27.2549 -7.1250 0.0000 -0.0000 5.2224 -12.4857 -6.2510 0.0000 -0.0000 0.0000 82.8541 -17.7064 38.8826 -53.3895 54.2743 -28.9040 0.0000 0.0000 13.1216 -43.3898 -43.7389 33.1672 7.1250 -0.0000 -0.0000 -16.8587 -82.4650 14.5403
2.1177 15.3585 -28.5388 2.3411 -1.3848 18.3718 0.0000 0.0000 0.0000 -31.1166 -8.4105 -29.4359 9.3091 17.0025 57.1529 4.5089 -4.6799 -39.3504 0.0286 -1.0925 -3.0034 0.0000 0.0000 0.0000 -0.4862 21.4751 -73.3100 -22.7535 -19.8172 98.0743 -0.0455 -11.0963 -16.4430 -0.0021 -0.2975 0.8175 -4.1738 -1.0227 -0.2712 -0.1873 -1.4806 -4.7380 2.1973 -0.5752 -4.6480 -5.5223 -3.0454 -16.5826 5.7573 -3.6878 10.9422 2.3662 -1.5514 6.2422 0.0000 -0.0000 0.0000 -70.7784 9.9705 54.5236 59.4426 -56.1596 -33.8777 -0.0000 0.0000 -5.5397 42.2219 -34.1750 -27.0093 -7.1250 0.0000 -0.0000 5.0362 -12.3916 -6.0203 0.0000 -0.0000 0.0000 83.1746 -17.6717 37.7742 -54.9156 54.7954 -30.1470 0.0000 0.0000 12.9217 -43.3066 -41.6952 32.0863 7.1250 -0.0000 -0.0000 -17.5032 -80.3290 14.3695
2.0806 15.2581 -28.1008 2.5189 -1.4967 18.4870 0.0000 0.0000 0.0000 -31.5026 -7.3759 -27.2933 9.0058 16.8115 56.1102 4.7656 -4.8336 -40.4932 0.0502 -1.4454 -3.9753 0.0000 0.0000 0.0000 -1.6671 22.2552 -75.3952 -21.6251 -19.9366 94.7562 -0.1566 -9.7548 -16.2470 -0.0053 0.4721 -1.2971 -4.4279 -1.2383 -0.3390 -0.3759 -1.7711 -4.4769 2.1485 -0.7256 -4.3158 -4.9810 -2.8590 -17.5975 5.6981 -3.5083 10.9472 2.2719 -1.4297 6.3908 -0.0000 -0.0000 0.0000 -70.5873 6.8801 55.0176 61.0566 -56.5850 -35.2217 -0.0000 0.0000 -5.0528 42.5081 -33.3330 -26.7330 -7.1250 0.0000 -0.0000 5.4328 -11.5935 -6.4397 -0.0000 -0.0000 0.0000 83.3716 -18.5598 37.2319 -56.9045 55.4270 -31.7785 0.0000 0.0000 12.8976 -43.2522 -41.2888 31.8311 7.1250 -0.0000 -0.0000 -17.4575 -79.8880 14.1790
2.0509 15.1910 -27.6753 2.9623 -0.4208 18.6432 0.0000 0.0000 0.0000 -31.8134 -7.2943 -24.5649 8.5785 16.5287 54.6205 4.8853 -4.8170 -41.0315 0.1298 -2.3221 -6.3966 0.0000 0.0000 0.0000 -2.6258 21.6379 -77.5253 -20.2745 -19.9982 90.8025 -0.2032 -8.5852 -15.5239 -0.0171 0.8455 -2.3239 -4.8297 -1.9924 0.4431 -0.1912 -2.8571 -5.2569 2.6452 -1.2047 -5.4837 -4.9927 -2.3881 -15.8701 5.6391 -2.9281 10.7613 2.3240 -1.1827 6.0119 0.0000 -0.0000 0.0000 -71.1231 5.8417 55.5415 62.8701 -57.0275 -36.7392 -0.0000 0.0000 -4.3911 43.1382 -32.8604 -26.9501 -7.1250 0.0000 -0.0000 5.9022 -11.3417 -6.9809 0.0000 -0.0000 0.0000 82.6565 -21.1315 37.5887 -59.2849 56.1163 -33.7468 0.0000 0.0000 13.1945 -43.7133 -42.1366 32.6771 7.1250 -0.0000 -0.0000 -18.7539 -80.9171 15.6219
2.0270 15.1432 -27.2017 2.9044 0.0734 18.6320 0.0000 0.0000 0.0000 -31.7174 -6.4733 -21.5744 8.0540 16.1588 52.7570 4.9617 -4.4616 -41.4318 0.3225 -3.6502 -10.0945 0.0000 0.0000 0.0000 -2.9361 21.7387 -78.8766 -18.6964 -19.9592 86.1860 -0.2485 -7.8095 -15.3150 -0.1327 2.3480 -6.4684 -4.7504 -2.5034 0.2268 -0.0276 -3.5096 -4.9675 2.7780 -1.5477 -4.9960 -4.9225 -2.0554 -16.9036 5.7959 -2.4864 11.0791 2.4066 -0.9356 6.2616 0.0000 -0.0000 0.0000 -71.5390 2.8852 55.6153 64.7108 -57.4399 -38.2872 -0.0000 0.0000 -4.8547 42.3416 -36.0743 -28.2171 -7.1250 0.0000 -0.0000 4.5227 -14.4850 -5.5249 0.0000 -0.0000 0.0000 82.1834 -21.6109 37.8182 -60.8687 56.5370 -35.0649 0.0000 0.0000 13.5950 -44.0354 -43.2344 33.5165 7.1250 -0.0000 -0.0000 -19.6792 -82.1517 16.8705
